REM DIRINDEX 1\2\5,1\2\6,1\2\7,1\2\8,1\3\9,1\3\10,1\3\11,1\4\12,1\4\13,1\4\14,1\4\15,1\4\16
REM DIRNAME cjc034,folder01,folder02,folder03,folder04,folder05,folder06,folder07,folder08,folder09,folder10,folder11,folder12,folder13,folder14,folder15
TITLE ""
FILE "1200_2_sec02_0430_0445.mp3" MP3
  TRACK 01 AUDIO
    TITLE "0:"
    INDEX 01 00:00:00
  TRACK 02 AUDIO
    TITLE "10:cjc034_00880"
    INDEX 01 00:00:13
  TRACK 03 AUDIO
    TITLE "0:"
    INDEX 01 00:01:13
  TRACK 04 AUDIO
    TITLE "9:cjc034_00881"
    INDEX 01 00:01:21
  TRACK 05 AUDIO
    TITLE "0:"
    INDEX 01 00:02:26
  TRACK 06 AUDIO
    TITLE "10:cjc034_00882"
    INDEX 01 00:03:06
  TRACK 07 AUDIO
    TITLE "0:"
    INDEX 01 00:03:66
  TRACK 08 AUDIO
    TITLE "9:cjc034_00883"
    INDEX 01 00:03:72
  TRACK 09 AUDIO
    TITLE "0:"
    INDEX 01 00:05:12
  TRACK 10 AUDIO
    TITLE "10:cjc034_00884"
    INDEX 01 00:05:69
  TRACK 11 AUDIO
    TITLE "0:"
    INDEX 01 00:06:71
  TRACK 12 AUDIO
    TITLE "9:cjc034_00885"
    INDEX 01 00:07:00
  TRACK 13 AUDIO
    TITLE "0:"
    INDEX 01 00:08:03
  TRACK 14 AUDIO
    TITLE "10:cjc034_00886"
    INDEX 01 00:08:58
  TRACK 15 AUDIO
    TITLE "0:"
    INDEX 01 00:09:47
  TRACK 16 AUDIO
    TITLE "9:cjc034_00887"
    INDEX 01 00:09:51
  TRACK 17 AUDIO
    TITLE "0:"
    INDEX 01 00:10:55
  TRACK 18 AUDIO
    TITLE "10:cjc034_00888"
    INDEX 01 00:11:39
  TRACK 19 AUDIO
    TITLE "0:"
    INDEX 01 00:14:02
  TRACK 20 AUDIO
    TITLE "9:cjc034_00889"
    INDEX 01 00:14:09
  TRACK 21 AUDIO
    TITLE "0:"
    INDEX 01 00:15:28
  TRACK 22 AUDIO
    TITLE "10:cjc034_00890"
    INDEX 01 00:16:14
  TRACK 23 AUDIO
    TITLE "0:"
    INDEX 01 00:19:22
  TRACK 24 AUDIO
    TITLE "9:cjc034_00891"
    INDEX 01 00:19:30
  TRACK 25 AUDIO
    TITLE "0:"
    INDEX 01 00:20:45
  TRACK 26 AUDIO
    TITLE "10:cjc034_00892"
    INDEX 01 00:21:27
  TRACK 27 AUDIO
    TITLE "0:"
    INDEX 01 00:22:46
  TRACK 28 AUDIO
    TITLE "9:cjc034_00893"
    INDEX 01 00:22:48
  TRACK 29 AUDIO
    TITLE "0:"
    INDEX 01 00:23:63
  TRACK 30 AUDIO
    TITLE "11:cjc034_00894"
    INDEX 01 00:25:35
  TRACK 31 AUDIO
    TITLE "0:"
    INDEX 01 00:27:14
  TRACK 32 AUDIO
    TITLE "10:cjc034_00895"
    INDEX 01 00:28:13
  TRACK 33 AUDIO
    TITLE "0:"
    INDEX 01 00:30:48
  TRACK 34 AUDIO
    TITLE "9:cjc034_00896"
    INDEX 01 00:30:55
  TRACK 35 AUDIO
    TITLE "0:"
    INDEX 01 00:31:63
  TRACK 36 AUDIO
    TITLE "10:cjc034_00897"
    INDEX 01 00:32:45
  TRACK 37 AUDIO
    TITLE "0:"
    INDEX 01 00:33:69
  TRACK 38 AUDIO
    TITLE "9:cjc034_00898"
    INDEX 01 00:33:73
  TRACK 39 AUDIO
    TITLE "0:"
    INDEX 01 00:35:15
  TRACK 40 AUDIO
    TITLE "10:cjc034_00899"
    INDEX 01 00:35:72
  TRACK 41 AUDIO
    TITLE "0:"
    INDEX 01 00:37:20
  TRACK 42 AUDIO
    TITLE "9:cjc034_00900"
    INDEX 01 00:37:24
  TRACK 43 AUDIO
    TITLE "0:"
    INDEX 01 00:38:24
  TRACK 44 AUDIO
    TITLE "10:cjc034_00901"
    INDEX 01 00:39:07
  TRACK 45 AUDIO
    TITLE "0:"
    INDEX 01 00:41:36
  TRACK 46 AUDIO
    TITLE "9:cjc034_00902"
    INDEX 01 00:41:42
  TRACK 47 AUDIO
    TITLE "0:"
    INDEX 01 00:42:37
  TRACK 48 AUDIO
    TITLE "10:cjc034_00903"
    INDEX 01 00:43:21
  TRACK 49 AUDIO
    TITLE "0:"
    INDEX 01 00:45:41
  TRACK 50 AUDIO
    TITLE "9:cjc034_00904"
    INDEX 01 00:45:43
  TRACK 51 AUDIO
    TITLE "0:"
    INDEX 01 00:46:54
  TRACK 52 AUDIO
    TITLE "10:cjc034_00905"
    INDEX 01 00:47:36
  TRACK 53 AUDIO
    TITLE "0:"
    INDEX 01 00:48:61
  TRACK 54 AUDIO
    TITLE "9:cjc034_00906"
    INDEX 01 00:48:63
  TRACK 55 AUDIO
    TITLE "0:"
    INDEX 01 00:50:11
  TRACK 56 AUDIO
    TITLE "10:cjc034_00907"
    INDEX 01 00:50:70
  TRACK 57 AUDIO
    TITLE "0:"
    INDEX 01 00:53:37
  TRACK 58 AUDIO
    TITLE "9:cjc034_00908"
    INDEX 01 00:53:41
  TRACK 59 AUDIO
    TITLE "0:"
    INDEX 01 00:54:40
  TRACK 60 AUDIO
    TITLE "10:cjc034_00909"
    INDEX 01 00:55:24
  TRACK 61 AUDIO
    TITLE "0:"
    INDEX 01 00:56:43
  TRACK 62 AUDIO
    TITLE "9:cjc034_00910"
    INDEX 01 00:56:47
  TRACK 63 AUDIO
    TITLE "0:"
    INDEX 01 00:57:50
  TRACK 64 AUDIO
    TITLE "10:cjc034_00911"
    INDEX 01 00:58:34
  TRACK 65 AUDIO
    TITLE "0:"
    INDEX 01 00:59:45
  TRACK 66 AUDIO
    TITLE "9:cjc034_00912"
    INDEX 01 00:59:47
  TRACK 67 AUDIO
    TITLE "0:"
    INDEX 01 01:00:47
